<svg xmlns="http://www.w3.org/2000/svg" viewBox="0 0 512 512" width="512" height="512"><defs><clipPath id="artboard-9755672912990491365"><rect x="0" y="0" width="512" height="512"/></clipPath></defs><g>
<g clip-path="url(#artboard-9755672912990491365)">
	<g transform="matrix(1,0,0,1,-26.816437151,-21.850430272)">
		<path d="M63.505682233744864,504.4979219546341 C69.55033067449543,504.4979219624141 72.57265490626062,502.63803012643245 72.57265492904034,498.9182464466894 C72.5726549213071,495.19846278658883 68.38789829701722,493.3385709567601 60.01838505617073,493.3385709572033 C56.76357434146692,493.33857095028725 54.78743926566926,491.94365207871476 54.08997982877764,489.1538143424858 C53.39252039188602,486.36397660625687 53.04379067573876,483.8066253401589 53.043790680335775,481.4817605441922 C53.043790685768215,463.81278813623715 58.50722294246302,442.78170356425835 69.43408745042024,418.3885068282559 C80.36095195130926,393.97742654616866 94.64992862424981,368.05518413483514 112.30101746924188,340.6217795942554 C129.9699898601057,313.1883750843852 148.6851514262526,286.22888530425564 168.44650216768258,259.74331025386687 C188.2078528859478,233.23985164908981 207.15550092125397,208.9450146005646 225.289446273601,186.85879910829135 C243.42339164036443,164.772583588072 258.3025262915922,147.21985441903615 269.9268502272843,134.20061160118377 C267.1370124849356,142.10515189210685 263.18474234744747,154.77566498911472 258.07003981481984,172.21215089220743 C252.95533728387238,189.64863683154994 247.8406347470725,209.87496051880254 242.72593220442016,232.89112195396535 C237.61122965301948,255.88939980679368 233.1939865470662,279.82656536111983 229.47420288656036,304.70261861694365 C225.75441922605455,329.57867187276753 223.89452739506888,353.4085359626223 223.8945273936034,376.1922108865082 C223.89452739092218,396.1681645163991 225.75441922380605,414.1769248494767 229.4742028922551,430.2184918857407 C233.19398656238434,446.2600589582544 239.58736473694455,459.0468153043955 248.65433741593574,468.5787609241637 C257.7213100966071,478.1107065801817 270.15039493313304,482.87667941276936 285.9415919255137,482.8766794219264 C302.21564546515924,482.8766794036492 319.5358881526237,476.36705798778564 337.90231998790705,463.3478151743359 C356.26875183760677,450.32857233293987 374.63518367809615,432.78478495255763 393.00161550937514,410.7164530331893 C411.3680473624188,388.63023751184414 428.9118347394024,363.986670739244 445.6329776403262,336.785752715389 C462.3720041464674,309.5848346467088 477.2511388077118,281.8116421909076 490.2703816240594,253.4661753479852 C503.289624446075,225.10282489478232 513.5190295244888,197.90190684852 520.9585968593009,171.86342120919835 C528.3981641780163,145.82493556157306 532.1179478411334,123.2737470877429 532.117947848652,104.20985578770792 C532.1179478519982,87.93580227183288 528.9793803844072,75.03280269047015 522.7022454458794,65.50085704361977 C516.425110523448,55.96891140507303 506.3119486844091,51.202938586674875 492.36275992876296,51.202938588425255 C488.6429762736919,51.20293860036823 483.17954402303855,52.365370993426424 475.9724631768029,54.6902357675999 C468.76538231615086,57.01510056971951 462.37200414033987,60.03742480563501 456.79232864937,63.757208475346445 C451.2305367331046,67.47699211987528 448.4496407703749,71.66174873810645 448.4496407611809,76.31147833003998 C448.44964077225575,78.17137014611718 449.4958299265512,79.45004577853776 451.58820822406744,80.14750522730164 C453.68058655209654,80.84496465642304 455.42423515164694,81.19369437327568 456.81915402271864,81.1936943778595 C461.4510000321094,81.19369437829214 465.7430581016292,80.37999170192127 469.69532823127787,78.7525863487469 C473.64759837702314,77.12518100387616 477.48362528547955,76.31147832962115 481.2034089566472,76.31147832598184 C490.96784106856546,76.31147833012248 495.85005712118055,85.37845101214201 495.85005711449264,103.51239637204039 C495.8500571195097,116.06666623611851 493.8739220483126,131.29453061665532 489.9216519009011,149.19598951365083 C485.96938176790616,167.09744838270024 481.08716571267973,185.46388022065184 475.27500373522196,204.29528502750566 C469.4628417490158,223.1088062520251 463.53443652696996,240.53635039431958 457.4897880690844,256.5779174543891 C451.46302320199993,272.6194844975796 446.3572624526562,285.28999760423267 442.17250582105305,294.5894567743482 C430.08320893014786,321.5578883226642 416.4827499130144,347.0151577648395 401.3711287696528,370.96126510087436 C386.25950763363943,394.88948886287835 370.68291353916004,414.2931680824785 354.6413464862147,429.1723027596747 C338.5997794315892,444.0514374006211 322.67445562073385,451.4910047291071 306.8653750536487,451.4910047451326 C289.2142862176359,451.4910047336433 277.0176878501315,442.2004873567919 270.27557995113534,423.61945261457834 C263.5334720594875,405.02053429833416 260.16241811836557,382.23685935827405 260.1624181277697,355.2684277943981 C260.16241812881043,332.0197798823192 261.90606672584886,307.1437266190567 265.3933639188849,280.6402680046107 C268.880661081408,254.13680940980714 273.05647590892056,228.68848175310535 277.9208084014227,204.29528503450547 C282.8030244615611,179.88420474463828 287.45275404388184,158.61169190794345 291.8699971483848,140.47774652442092 C296.2872402384713,122.34380116884451 299.19332122594597,109.78953129939806 300.5882401108087,102.81493691608163 C301.5181860287581,100.9550450871974 301.98315898219545,99.09515326471667 301.9831589711206,97.23526144863943 C301.98315898742254,89.33072115685239 298.84459153049,82.35612677959811 292.56745660032294,76.3114783168766 C286.29032167015595,70.26682985415512 279.4409123220972,67.2445056319673 272.01922855614663,67.24450565031314 C269.22939081400324,67.2445056411455 263.7659585588544,70.38307309808805 255.62893179070005,76.6602080211408 C247.49190500812927,82.93734297213969 238.77366204612076,90.37691030844589 229.47420290467448,98.97891003005937 C220.17474374713163,107.58090974336922 212.1539602194035,115.48545003391074 205.41185232149013,122.69253090168387 C198.66974442189658,129.89961173320722 195.29869046980133,134.6655845469523 195.2986904652043,136.99044934291902 C195.29869047670383,139.31531414718944 196.69360935226987,140.94271950585187 199.48344709190238,141.8726654189063 C202.27328484763143,142.80261134026443 204.3656631604041,143.50007077920708 205.76058203022035,143.9650437357343 C196.46112287978303,156.51931358511644 184.60431244934588,173.60706978797396 170.19015073890893,195.22831234430697 C155.7759890358202,216.83167132660924 140.66436789644655,240.65259363764278 124.855287320788,266.69107927740765 C109.06409032151413,292.7295649282397 94.19389745523628,319.0005370506759 80.2447087219544,345.50399564471627 C66.29551997425608,372.0074542667029 55.01992574447297,396.53477780658943 46.41792603260507,419.0859662643762 C37.81592629757242,441.61927116777474 33.51492643810201,460.0930044595517 33.51492645419387,474.507166139707 C33.514926448136066,485.2015441877078 35.95603447569789,492.8735979947372 40.83825053687937,497.5233275607949 C45.72046658364445,502.1730571547987 53.276277149266264,504.4979219527452 63.505682233744864,504.4979219546341 Z" fill="#000000"/>
	</g>
</g></g></svg>